<svg xmlns="http://www.w3.org/2000/svg" width="1000" height="800" viewBox="0 0 1000 800" preserveAspectRatio="xMidYMid slice">
  <defs>
    <radialGradient id="g1" cx="50%" cy="40%" r="75%">
      <stop offset="0" stop-color="#2f8b41"/><stop offset="0.6" stop-color="#1a5e2a"/><stop offset="1" stop-color="#0d3a1a"/>
    </radialGradient>
  </defs>
  <rect width="1000" height="800" fill="url(#g1)"/>
  <g opacity="0.25" stroke="#7fd06a" stroke-width="2" fill="none">
    <circle cx="500" cy="360" r="150"/><circle cx="500" cy="360" r="240"/><circle cx="500" cy="360" r="330"/>
  </g>
  <!-- heart held by open hands -->
  <path d="M500 300c-30-55-130-48-130 18 0 55 80 95 130 132 50-37 130-77 130-132 0-66-100-73-130-18Z" fill="#ffd86b"/>
  <g fill="#0c2c14" opacity="0.85">
    <path d="M360 560c-20-40-30-90-15-120 8-16 26-12 30 6 6 26 10 60 25 92Z"/>
    <path d="M640 560c20-40 30-90 15-120-8-16-26-12-30 6-6 26-10 60-25 92Z"/>
    <path d="M380 640q120-70 240 0v60H380Z"/>
  </g>
  <text x="500" y="730" text-anchor="middle" fill="#eaf6e2" font-family="Georgia, serif" font-size="44" font-style="italic">Sow into the work</text>
  <text x="500" y="775" text-anchor="middle" fill="#9ccb8c" font-family="Arial, sans-serif" font-size="20" letter-spacing="3">REPLACE WITH YOUR OWN PHOTO</text>
</svg>
