<svg xmlns="http://www.w3.org/2000/svg" width="1000" height="800" viewBox="0 0 1000 800" preserveAspectRatio="xMidYMid slice">
  <defs>
    <linearGradient id="g2" x1="0" y1="0" x2="1" y2="1">
      <stop offset="0" stop-color="#1f7a34"/><stop offset="0.55" stop-color="#14501f"/><stop offset="1" stop-color="#0a2e13"/>
    </linearGradient>
  </defs>
  <rect width="1000" height="800" fill="url(#g2)"/>
  <g opacity="0.2" stroke="#7fd06a" stroke-width="2">
    <line x1="0" y1="200" x2="1000" y2="200"/><line x1="0" y1="400" x2="1000" y2="400"/><line x1="0" y1="600" x2="1000" y2="600"/>
    <line x1="250" y1="0" x2="250" y2="800"/><line x1="500" y1="0" x2="500" y2="800"/><line x1="750" y1="0" x2="750" y2="800"/>
  </g>
  <!-- offering basket with coins -->
  <ellipse cx="500" cy="430" rx="190" ry="50" fill="#0c2c14" opacity="0.6"/>
  <path d="M320 400h360l-40 150q-140 40-280 0Z" fill="#caa15a"/>
  <path d="M320 400h360l-8 30H328Z" fill="#e0bd7e"/>
  <g fill="#ffd86b" stroke="#b88a3e" stroke-width="3">
    <circle cx="450" cy="380" r="34"/><circle cx="520" cy="368" r="34"/><circle cx="500" cy="410" r="34"/>
  </g>
  <text x="500" y="720" text-anchor="middle" fill="#eaf6e2" font-family="Georgia, serif" font-size="44" font-style="italic">Give cheerfully</text>
  <text x="500" y="765" text-anchor="middle" fill="#9ccb8c" font-family="Arial, sans-serif" font-size="20" letter-spacing="3">REPLACE WITH YOUR OWN PHOTO</text>
</svg>
