<svg xmlns="http://www.w3.org/2000/svg" viewBox="0 0 792 151"><path d="M748.1 1.69922L761.76 11.2292L761.04 40.0192L747.38 30.4892L748.1 1.69922Z" fill="black"></path><path d="M747.26 35.3496L760.92 44.8796L759.41 105.36L745.75 95.8296L747.26 35.3496Z" fill="black"></path><path d="M777.99 108L791.65 117.53L790.94 145.94L777.28 136.41L777.99 108Z" fill="black"></path><path d="M604.55 30.1602L618.21 39.6902L617.42 71.3402L603.76 61.8102L604.55 30.1602Z" fill="black"></path><path d="M533.12 87.5703L546.78 97.1003L545.57 145.45L531.92 135.92L533.12 87.5703Z" fill="black"></path><path d="M535.28 0.789062L548.94 10.3191L547.71 59.4691L534.06 49.9391L535.28 0.789062Z" fill="black"></path><path d="M558.36 52.4707L572.02 62.0007L554.92 62.1907L541.26 52.6607L558.36 52.4707Z" fill="black"></path><path d="M689.46 1.23047L703.12 10.7605L701.43 65.3105L687.77 55.7805L689.46 1.23047Z" fill="black"></path><path d="M647 29.6895L660.66 39.2195L618.21 39.6895L604.55 30.1595L647 29.6895Z" fill="black"></path><path d="M648.15 61.3203L661.81 70.8503L661.18 96.1203L647.53 86.5903L648.15 61.3203Z" fill="black"></path><path d="M687.77 55.7793L701.43 65.3093L660 65.7693L646.34 56.2393L687.77 55.7793Z" fill="black"></path><path d="M20.38 35.5996L34.03 45.1296L16.18 45.3296L2.52002 35.7996L20.38 35.5996Z" fill="black"></path><path d="M76.6498 0L90.3098 9.53L89.4398 44.51L75.7798 34.98L76.6498 0Z" fill="black"></path><path d="M75.7802 34.9805L89.4402 44.5105L74.8902 44.6805L61.2402 35.1505L75.7802 34.9805Z" fill="black"></path><path d="M61.2399 35.1504L74.8899 44.6804L73.0899 116.99L59.4399 107.46L61.2399 35.1504Z" fill="black"></path><path d="M159.92 135.311L173.57 144.841L13.66 146.631L0 137.101L159.92 135.311Z" fill="black"></path><path d="M161.23 83.1504L174.95 92.6104L173.57 144.84L159.92 135.31L161.23 83.1504Z" fill="black"></path><path d="M221.27 40.1602L234.92 49.6902L234.63 61.6202L220.97 52.0902L221.27 40.1602Z" fill="black"></path><mask id="mask0_636_257" style="mask-type:luminance;" maskUnits="userSpaceOnUse" x="175" y="136" width="30" height="15"><path d="M189.56 146.149L175.9 136.619C180.12 139.559 185.27 141.259 190.88 141.189L204.54 150.719C198.94 150.779 193.78 149.089 189.56 146.149Z" fill="white"></path></mask><g mask="url(#mask0_636_257)"><path d="M190.88 141.189L204.54 150.719C198.94 150.779 193.78 149.089 189.56 146.149L175.9 136.619C180.12 139.559 185.27 141.259 190.88 141.189Z" fill="black"></path></g><path d="M219.67 76.6699L233.33 86.1999L232.45 121.3L218.79 111.77L219.67 76.6699Z" fill="black"></path><path d="M280.83 39.4902L294.49 49.0202L234.92 49.6902L221.27 40.1602L280.83 39.4902Z" fill="black"></path><mask id="mask1_636_257" style="mask-type:luminance;" maskUnits="userSpaceOnUse" x="304" y="12" width="36" height="54"><path d="M304.8 12.8691L318.46 22.3991C331.8 31.7091 340.31 47.4691 339.86 65.4291L326.2 55.8991C326.65 37.9291 318.14 22.1791 304.8 12.8691Z" fill="white"></path></mask><g mask="url(#mask1_636_257)"><path d="M304.8 12.8691L318.46 22.3991C319.77 23.3091 321.03 24.2891 322.24 25.3191L308.58 15.7891C307.37 14.7591 306.11 13.7791 304.8 12.8691Z" fill="black"></path><path d="M308.58 15.7891L322.24 25.3191C323.97 26.7891 325.6 28.3891 327.11 30.0891L313.45 20.5591C311.94 18.8591 310.31 17.2691 308.58 15.7891Z" fill="black"></path><path d="M313.45 20.5586L327.11 30.0886C329.18 32.4086 331.03 34.9286 332.64 37.6186L318.98 28.0886C317.37 25.3986 315.51 22.8786 313.45 20.5586Z" fill="black"></path><path d="M318.98 28.0898L332.64 37.6198C336.41 43.8998 338.86 51.1098 339.62 58.8698L325.96 49.3398C325.2 41.5798 322.75 34.3798 318.98 28.0898Z" fill="black"></path><path d="M325.96 49.3398L339.62 58.8698C339.83 61.0198 339.91 63.2098 339.86 65.4398L326.2 55.9098C326.26 53.6798 326.17 51.4898 325.96 49.3398Z" fill="black"></path></g><path d="M325.71 75.4902L339.37 85.0202L233.33 86.2002L219.67 76.6702L325.71 75.4902Z" fill="black"></path><path d="M326.2 55.9004L339.86 65.4304L339.37 85.0204L325.71 75.4904L326.2 55.9004Z" fill="black"></path><path d="M297.43 140L311.09 149.53L204.54 150.72L190.88 141.19L297.43 140Z" fill="black"></path><path d="M325.41 87.4297L339.07 96.9597L338.44 122.19L324.78 112.66L325.41 87.4297Z" fill="black"></path><mask id="mask2_636_257" style="mask-type:luminance;" maskUnits="userSpaceOnUse" x="297" y="112" width="42" height="38"><path d="M324.78 112.66L338.44 122.19C338.07 137.12 325.82 149.37 311.09 149.53L297.43 140C312.16 139.84 324.41 127.59 324.78 112.66Z" fill="white"></path></mask><g mask="url(#mask2_636_257)"><path d="M324.78 112.66L338.44 122.19C338.43 122.74 338.4 123.3 338.35 123.84L324.69 114.31C324.74 113.76 324.77 113.21 324.78 112.66Z" fill="black"></path><path d="M324.69 114.311L338.35 123.841C338.25 125.051 338.07 126.231 337.82 127.391L324.16 117.861C324.41 116.701 324.59 115.521 324.69 114.311Z" fill="black"></path><path d="M324.16 117.859L337.82 127.389C337.6 128.409 337.32 129.409 336.99 130.389L323.33 120.859C323.66 119.879 323.94 118.879 324.16 117.859Z" fill="black"></path><path d="M323.34 120.859L337 130.389C336.69 131.319 336.33 132.219 335.92 133.109L322.26 123.579C322.66 122.699 323.02 121.789 323.34 120.859Z" fill="black"></path><path d="M322.26 123.58L335.92 133.11C335.52 133.99 335.07 134.85 334.58 135.68L320.92 126.15C321.41 125.32 321.86 124.46 322.26 123.58Z" fill="black"></path><path d="M320.92 126.15L334.58 135.68C334.07 136.55 333.52 137.38 332.92 138.18L319.26 128.65C319.85 127.85 320.41 127.01 320.92 126.15Z" fill="black"></path><path d="M319.26 128.65L332.92 138.18C332.26 139.08 331.54 139.93 330.78 140.74L317.12 131.21C317.88 130.4 318.6 129.54 319.26 128.65Z" fill="black"></path><path d="M317.13 131.221L330.79 140.751C329.86 141.741 328.87 142.661 327.81 143.501L314.15 133.971C315.21 133.131 316.2 132.211 317.13 131.221Z" fill="black"></path><path d="M314.15 133.971L327.81 143.501C323.17 147.211 317.35 149.471 311.09 149.531L297.43 140.001C303.69 139.931 309.5 137.681 314.15 133.971Z" fill="black"></path></g><path d="M359.54 51.1797L373.2 60.7097L344.2 61.0297L330.54 51.4997L359.54 51.1797Z" fill="black"></path><path d="M396.1 50.0703L409.75 59.6003L401.44 59.7003L387.78 50.1703L396.1 50.0703Z" fill="black"></path><path d="M387.78 50.1699L401.44 59.6999L401.17 98.2999L387.51 88.7699L387.78 50.1699Z" fill="black"></path><path d="M418.83 2.08984L432.48 11.6198L444.53 80.9698L430.88 71.4398L418.83 2.08984Z" fill="black"></path><path d="M398.7 137.4L412.36 146.93L342.03 147.72L328.38 138.19L398.7 137.4Z" fill="black"></path><path d="M399.92 88.6309L413.58 98.1609L412.36 146.931L398.7 137.401L399.92 88.6309Z" fill="black"></path><path d="M477.11 49.8691L490.77 59.3991L480.38 59.5091L466.72 49.9791L477.11 49.8691Z" fill="black"></path><path d="M466.72 49.9805L480.38 59.5105L461.61 117.98L447.95 108.45L466.72 49.9805Z" fill="black"></path><path d="M447.95 108.449L461.61 117.979L423.52 118.399L409.86 108.869L447.95 108.449Z" fill="black"></path><path d="M505.48 50.2598L519.14 59.7898L518.21 96.9998L504.56 87.4698L505.48 50.2598Z" fill="black"></path><path d="M534.06 49.9395L547.71 59.4695L519.14 59.7895L505.48 50.2595L534.06 49.9395Z" fill="black"></path><path d="M531.92 135.92L545.57 145.45L475.45 146.23L461.79 136.7L531.92 135.92Z" fill="black"></path><path d="M747.38 30.4902L761.04 40.0202L707.71 40.6102L694.06 31.0802L747.38 30.4902Z" fill="black"></path><path d="M687.77 55.7805L646.34 56.2405L647 29.6905L604.55 30.1605L603.76 61.8105L648.15 61.3205L647.53 86.5905L603.61 86.6305L603.55 88.8905L602.31 138.65L539.1 139.35L540.34 89.6005L557.44 89.4105L558.36 52.4705L541.26 52.6605L542.5 2.90047L559.6 2.71047L689.46 1.23047L687.77 55.7805Z" fill="#5CC793"></path><path d="M76.65 0L75.78 34.98L61.24 35.15L59.44 107.46L88.53 107.13L89.1 83.96L161.23 83.15L159.92 135.31L0 137.1L0.72 108.11L18.85 96.68L20.38 35.6L2.52 35.8L3.4 0.82L76.65 0Z" fill="#5CC793"></path><path d="M325.71 75.4896L219.67 76.6696L218.8 111.77L237.49 111.56L238.07 88.3996L325.42 87.4296L324.79 112.66C324.42 127.59 312.17 139.84 297.44 140L190.89 141.19C176.16 141.35 164.51 129.38 164.88 114.44L166.29 57.6796C167.01 28.6896 190.78 4.93959 219.36 4.61959L275.74 3.98959C304.33 3.66959 326.91 26.9096 326.19 55.8896L325.7 75.4796L325.71 75.4896ZM221.27 40.1596L220.97 52.0896L280.53 51.4296L280.83 39.4996L221.27 40.1596Z" fill="#5CC793"></path><path d="M535.28 0.789062L534.06 49.9391L505.48 50.2591L504.56 87.4691L533.12 87.5691L531.92 135.919L461.79 136.699L462.99 88.6291L476.15 88.4791L477.11 49.8691L466.72 49.9791L447.95 108.449L409.86 108.869L396.1 50.0691L387.78 50.1691L387.51 88.7691L399.92 88.6291L398.7 137.399L328.38 138.189L329.59 89.4191L358.6 89.0891L359.54 51.1791L330.54 51.4991L331.75 3.05906L418.83 2.08906L430.88 71.4391L448.81 1.74906L535.28 0.789062Z" fill="#5CC793"></path><path d="M748.1 1.69922L747.38 30.4892L694.06 31.0792L694.78 2.29922L748.1 1.69922Z" fill="#5CC793"></path><path d="M747.26 35.3496L745.75 95.8296L777.99 108L777.28 136.41L662.32 137.69L663.03 109.28L691.73 96.4296L693.24 35.9496L747.26 35.3496Z" fill="#5CC793"></path><path d="M777.28 136.41L790.94 145.94L675.98 147.22L662.32 137.69L777.28 136.41Z" fill="black"></path><path d="M603.61 86.6309L617.26 96.1609L617.21 98.4209L603.55 88.8909L603.61 86.6309Z" fill="black"></path><path d="M602.31 138.65L615.97 148.18L552.76 148.88L539.1 139.35L602.31 138.65Z" fill="black"></path><path d="M603.55 88.8906L617.21 98.4206L615.97 148.181L602.31 138.651L603.55 88.8906Z" fill="black"></path><path d="M647.53 86.5898L661.18 96.1199L617.26 96.1599L603.61 86.6298L647.53 86.5898Z" fill="black"></path></svg>