<svg width="181" height="25" viewBox="0 0 181 25" fill="none" xmlns="http://www.w3.org/2000/svg">
<path d="M7.17765 0.549805C11.6608 0.555104 15.2624 0.562171 19.7456 0.56747C19.7367 2.86908 19.7297 5.17069 19.7208 7.47407C18.3448 7.83088 16.4035 8.17357 14.079 8.07641C11.1132 7.95277 8.77094 7.16495 7.296 6.53435C7.26244 6.58734 7.26951 6.57498 7.23594 6.6262C9.98622 9.31289 16.4389 11.807 18.9507 14.5079C20.7012 16.3908 21.0827 18.8373 19.8621 21.0082C18.6504 23.1614 16.1721 24.5003 13.3936 24.5003L0.864556 24.4703C0.864556 22.1634 0.864556 19.8583 0.864556 17.5513C2.15579 17.2104 3.92572 16.8942 6.02773 16.9543C9.17544 17.0444 11.6396 17.9364 13.1251 18.6165C13.1357 18.6024 13.1445 18.5882 13.1551 18.5723C13.1657 18.5564 13.1763 18.5405 13.1869 18.5246C10.6839 16.5851 8.50068 15.2374 6.92153 14.3436C4.69057 13.0824 3.26332 12.3052 1.62234 10.5423C-0.128156 8.65932 -0.509698 6.21286 0.710881 4.04196C1.92086 1.88696 4.39911 0.549805 7.17765 0.549805Z" fill="#3C0F19"/>
<path d="M57.2851 0.5C57.0838 1.28605 56.9177 2.13038 56.81 3.03124C56.2218 7.91355 57.6596 12.0346 58.8519 14.6329H58.6188C57.2957 12.5256 50.0129 0.524727 50.0129 0.524727H42.375V24.4753H49.6437C49.8327 23.7281 49.9882 22.9279 50.0959 22.08C50.7089 17.1924 49.3258 13.0379 48.1158 10.3671H48.3472C49.7303 12.4762 57.3081 24.4753 57.3081 24.4753H64.5539V0.524727L57.2851 0.5Z" fill="#3C0F19"/>
<path d="M76.6837 0.549805H66.7637V24.4986H76.6837C84.4965 24.4986 88.9779 20.1338 88.9779 12.5242C88.9779 4.91457 84.4965 0.549805 76.6837 0.549805ZM74.3344 7.02717H76.2245C79.4729 7.02717 81.188 8.813 81.188 12.5242C81.188 16.2354 79.4711 18.0212 76.2245 18.0212H74.3344V7.02717Z" fill="#3C0F19"/>
<path d="M29.1818 15.2497H38.8899V9.65733H29.1818V7.08017H40.1652V0.549805H21.9219V24.4986H40.1652V17.9682H29.1818V15.2497Z" fill="#3C0F19"/>
<path d="M169.99 15.2497H179.699V9.65733H169.99V7.08017H180.975V0.549805H162.731V24.4986H180.975V17.9682H169.99V15.2497Z" fill="#3C0F19"/>
<path d="M121.771 0.514458C119.457 0.516224 117.242 0.519759 114.894 0.521525C113.879 2.08125 112.626 4.36697 111.743 7.32391C110.817 10.4204 110.632 13.1336 110.646 15.0431H110.409C109.731 10.2385 109.316 5.4321 108.638 0.62751L108.618 0.514458H101.682L101.662 0.62751C100.984 5.4321 100.569 10.2385 99.8905 15.0431C99.811 15.0431 99.7333 15.0431 99.6538 15.0431C99.6697 13.1336 99.4825 10.4222 98.5569 7.32391C97.6737 4.36697 96.4213 2.08302 95.4056 0.521525C93.0563 0.519759 90.843 0.516224 88.5291 0.514458C88.1988 0.514458 87.8649 0.514462 87.5293 0.512695C90.3131 8.4968 93.1871 16.4791 95.9709 24.4615H102.466C103.201 22.5096 103.906 20.1992 104.416 17.569C104.716 16.0216 104.909 13.6812 105.029 12.3352C105.108 12.3352 105.188 12.3352 105.267 12.3352C105.386 13.6812 105.58 16.0216 105.88 17.569C106.391 20.2009 107.097 22.5096 107.83 24.4615H114.326C117.109 16.4774 119.983 8.49503 122.767 0.512695C122.433 0.512695 122.101 0.512692 121.771 0.514458Z" fill="#3C0F19"/>
<path d="M134.161 0.639702L134.128 0.547852H125.287L116.822 24.4966H124.243L125.624 20.3156H133.539L134.921 24.4966H142.626L134.161 0.639702ZM129.565 14.8539C128.562 14.8539 127.756 15.0676 127.239 15.2478L129.463 7.06408C129.569 7.06408 129.565 7.06408 129.671 7.06408L131.895 15.2478C131.377 15.0676 130.57 14.8539 129.565 14.8539Z" fill="#3C0F19"/>
<path d="M153.682 0.558635C152.797 2.41158 151.894 4.61075 151.124 7.13669C150.225 10.0883 149.718 12.7874 149.435 15.0802H149.2C148.916 12.7874 148.411 10.0883 147.512 7.13669C146.741 4.61251 145.839 2.41158 144.954 0.558635C142.269 0.555102 139.497 0.553337 136.812 0.549805L145.222 24.4067L145.254 24.5003H153.381L153.413 24.4067L161.823 0.549805C159.138 0.551571 156.365 0.555102 153.682 0.558635Z" fill="#3C0F19"/>
</svg>
